# xmcd
#
# Track frame offsets: 
#        150
#        20437
#        28220
#        44497
#        56819
#        69930
#        89900
#        103877
#        122944
#        138629
#        155882
#        166008
#        179510
#        194862
#        215806
#        230827
#        244212
#        260619
#        279024
#        291337
#        305299
#        324358
#        335157
#
# Disc length: 4766 seconds
#
# Revision: 1
# Processed by: cddbd v1.5.2PL0 Copyright (c) Steve Scherf et al.
# Submitted via: ExactAudioCopy v1.3
#
DISCID=7a129c17
DTITLE=Various Artist - Akella Presents - vol.109 - Rockin' Rollers B
DTITLE=lues  CD2
DYEAR=2017
DGENRE=Rock and Roll
TTITLE0=The King Brothers - Miniskirt
TTITLE1=Barrence Whitfield - Geronimo Stomp
TTITLE2=Jason Elmore and Hoodoo Witch - Cross-eyed Woman
TTITLE3=Marc Ford - Go Too Soon
TTITLE4=Delbert McClinton - Squeeze Me In
TTITLE5=Blues 'N' Trouble - Long Gone Man
TTITLE6=Kenny 'Blues Boss' Wayne - Run Little Joe
TTITLE7=Watermelon Slim - Caterpillar Whine
TTITLE8=Ruthless Blues - Solid Gold Mustang
TTITLE9=Jimmie Vaughan - I Ain't Gonna Do It No More
TTITLE10=Jason Elmore and Hoodoo Witch - House Rockin' Boogie #7
TTITLE11=The Peacemakers - I Found Jesus
TTITLE12=Mark Salllings and The Famous Unknowns - Big V 8
TTITLE13=Sandy Mack - Love Explosion
TTITLE14=Cee Cee James - I'll Ask The Questions, You Tell The Lies
TTITLE15=Bill Perry - Heaven in a Pontiac
TTITLE16=Higway 414 - All Fired Up
TTITLE17=Ruthless Blues - Fine Fine Fine
TTITLE18=Black Cat Bone - Move On Baby
TTITLE19=Scrapomatic - I Just Wanna Hang Around With You
TTITLE20=Michael Terry - Trampe Stampe
TTITLE21=Jason Elmore and Hoodoo Witch - Mary Jane
TTITLE22=Bill Magee Blues Band - Johnny B Good
EXTD=
EXTT0=
EXTT1=
EXTT2=
EXTT3=
EXTT4=
EXTT5=
EXTT6=
EXTT7=
EXTT8=
EXTT9=
EXTT10=
EXTT11=
EXTT12=
EXTT13=
EXTT14=
EXTT15=
EXTT16=
EXTT17=
EXTT18=
EXTT19=
EXTT20=
EXTT21=
EXTT22=
PLAYORDER=
